STARTFONT 2.1
COMMENT  
COMMENT  WARNING:  This bdf file was generated from a pcf file using
COMMENT  pcftobdf.  The resulting font is subject to the same copyright,
COMMENT  license, and trademark restrictions as the original font.  The
COMMENT  authors and distributors of fstobdf disclaim all liability for
COMMENT  misuse of the program or its output.
COMMENT  
FONT --Kapl-Medium-R-Normal--14-140-72-72-M--iso8859-1
SIZE 14 72 72
FONTBOUNDINGBOX 8 16 0 -5

STARTPROPERTIES 20
FONTNAME_REGISTRY ""
FAMILY_NAME "Kapl"
FOUNDRY ""
WEIGHT_NAME "Medium"
SLANT "R"
SETWIDTH_NAME "Normal"
ADD_STYLE_NAME ""
PIXEL_SIZE 14
POINT_SIZE 140
RESOLUTION_X 72
RESOLUTION_Y 72
SPACING "M"
AVERAGE_WIDTH 80
CHARSET_REGISTRY "ISO8859"
CHARSET_ENCODING "1"
CHARSET_COLLECTIONS "ASCII ISO8859-1"
FULL_NAME "Kapl"
DEFAULT_CHAR 0
FONT_ASCENT 11
FONT_DESCENT 5
ENDPROPERTIES

CHARS 174
STARTCHAR C020
ENCODING 16
SWIDTH 573 0
DWIDTH 8 0
BBX 8 16 0 -5
BITMAP
00
00
00
00
00
00
00
1f
10
10
10
10
10
10
10
10
ENDCHAR
STARTCHAR C021
ENCODING 17
SWIDTH 573 0
DWIDTH 8 0
BBX 8 16 0 -5
BITMAP
00
00
00
00
00
00
00
ff
10
10
10
10
10
10
10
10
ENDCHAR
STARTCHAR C022
ENCODING 18
SWIDTH 573 0
DWIDTH 8 0
BBX 8 16 0 -5
BITMAP
00
00
00
00
00
00
00
f0
10
10
10
10
10
10
10
10
ENDCHAR
STARTCHAR C023
ENCODING 19
SWIDTH 573 0
DWIDTH 8 0
BBX 8 16 0 -5
BITMAP
10
10
10
10
10
10
10
1f
10
10
10
10
10
10
10
10
ENDCHAR
STARTCHAR C024
ENCODING 20
SWIDTH 573 0
DWIDTH 8 0
BBX 8 16 0 -5
BITMAP
10
10
10
10
10
10
10
ff
10
10
10
10
10
10
10
10
ENDCHAR
STARTCHAR C025
ENCODING 21
SWIDTH 573 0
DWIDTH 8 0
BBX 8 16 0 -5
BITMAP
10
10
10
10
10
10
10
f0
10
10
10
10
10
10
10
10
ENDCHAR
STARTCHAR C026
ENCODING 22
SWIDTH 573 0
DWIDTH 8 0
BBX 8 16 0 -5
BITMAP
10
10
10
10
10
10
10
1f
00
00
00
00
00
00
00
00
ENDCHAR
STARTCHAR C027
ENCODING 23
SWIDTH 573 0
DWIDTH 8 0
BBX 8 16 0 -5
BITMAP
10
10
10
10
10
10
10
ff
00
00
00
00
00
00
00
00
ENDCHAR
STARTCHAR C030
ENCODING 24
SWIDTH 573 0
DWIDTH 8 0
BBX 8 16 0 -5
BITMAP
10
10
10
10
10
10
10
f0
00
00
00
00
00
00
00
00
ENDCHAR
STARTCHAR C031
ENCODING 25
SWIDTH 573 0
DWIDTH 8 0
BBX 8 16 0 -5
BITMAP
10
10
10
10
10
10
10
10
10
10
10
10
10
10
10
10
ENDCHAR
STARTCHAR C032
ENCODING 26
SWIDTH 573 0
DWIDTH 8 0
BBX 8 16 0 -5
BITMAP
00
00
00
00
00
00
00
ff
00
00
00
00
00
00
00
00
ENDCHAR
STARTCHAR C040
ENCODING 32
SWIDTH 573 0
DWIDTH 8 0
BBX 8 16 0 -5
BITMAP
00
00
00
00
00
00
00
00
00
00
00
00
00
00
00
00
ENDCHAR
STARTCHAR C041
ENCODING 33
SWIDTH 573 0
DWIDTH 8 0
BBX 8 16 0 -5
BITMAP
00
00
08
08
08
08
08
08
00
00
08
08
00
00
00
00
ENDCHAR
STARTCHAR C042
ENCODING 34
SWIDTH 573 0
DWIDTH 8 0
BBX 8 16 0 -5
BITMAP
00
00
24
24
24
24
00
00
00
00
00
00
00
00
00
00
ENDCHAR
STARTCHAR C043
ENCODING 35
SWIDTH 573 0
DWIDTH 8 0
BBX 8 16 0 -5
BITMAP
00
00
24
24
24
7e
24
24
7e
24
24
24
00
00
00
00
ENDCHAR
STARTCHAR C044
ENCODING 36
SWIDTH 573 0
DWIDTH 8 0
BBX 8 16 0 -5
BITMAP
00
08
08
3c
4a
48
28
1c
0a
0a
4a
3c
08
00
00
00
ENDCHAR
STARTCHAR C045
ENCODING 37
SWIDTH 573 0
DWIDTH 8 0
BBX 8 16 0 -5
BITMAP
00
00
30
48
49
4a
34
08
16
29
49
09
06
00
00
00
ENDCHAR
STARTCHAR C046
ENCODING 38
SWIDTH 573 0
DWIDTH 8 0
BBX 8 16 0 -5
BITMAP
00
00
18
24
20
20
10
29
46
44
4e
39
00
00
00
00
ENDCHAR
STARTCHAR C047
ENCODING 39
SWIDTH 573 0
DWIDTH 8 0
BBX 8 16 0 -5
BITMAP
00
00
08
08
08
08
00
00
00
00
00
00
00
00
00
00
ENDCHAR
STARTCHAR C050
ENCODING 40
SWIDTH 573 0
DWIDTH 8 0
BBX 8 16 0 -5
BITMAP
00
04
08
10
10
20
20
20
20
20
10
10
08
04
00
00
ENDCHAR
STARTCHAR C051
ENCODING 41
SWIDTH 573 0
DWIDTH 8 0
BBX 8 16 0 -5
BITMAP
00
20
10
08
08
04
04
04
04
04
08
08
10
20
00
00
ENDCHAR
STARTCHAR C052
ENCODING 42
SWIDTH 573 0
DWIDTH 8 0
BBX 8 16 0 -5
BITMAP
00
00
00
08
08
6b
3e
1c
36
22
00
00
00
00
00
00
ENDCHAR
STARTCHAR C053
ENCODING 43
SWIDTH 573 0
DWIDTH 8 0
BBX 8 16 0 -5
BITMAP
00
00
00
00
08
08
08
7f
08
08
08
00
00
00
00
00
ENDCHAR
STARTCHAR C054
ENCODING 44
SWIDTH 573 0
DWIDTH 8 0
BBX 8 16 0 -5
BITMAP
00
00
00
00
00
00
00
00
00
00
18
18
08
10
20
00
ENDCHAR
STARTCHAR C055
ENCODING 45
SWIDTH 573 0
DWIDTH 8 0
BBX 8 16 0 -5
BITMAP
00
00
00
00
00
00
00
7e
00
00
00
00
00
00
00
00
ENDCHAR
STARTCHAR C056
ENCODING 46
SWIDTH 573 0
DWIDTH 8 0
BBX 8 16 0 -5
BITMAP
00
00
00
00
00
00
00
00
00
00
18
18
00
00
00
00
ENDCHAR
STARTCHAR C057
ENCODING 47
SWIDTH 573 0
DWIDTH 8 0
BBX 8 16 0 -5
BITMAP
00
01
02
02
04
04
08
08
10
10
20
20
40
00
00
00
ENDCHAR
STARTCHAR C060
ENCODING 48
SWIDTH 573 0
DWIDTH 8 0
BBX 8 16 0 -5
BITMAP
00
00
1c
22
22
22
22
22
22
22
22
1c
00
00
00
00
ENDCHAR
STARTCHAR C061
ENCODING 49
SWIDTH 573 0
DWIDTH 8 0
BBX 8 16 0 -5
BITMAP
00
00
08
18
28
08
08
08
08
08
08
3e
00
00
00
00
ENDCHAR
STARTCHAR C062
ENCODING 50
SWIDTH 573 0
DWIDTH 8 0
BBX 8 16 0 -5
BITMAP
00
00
3c
42
42
02
04
08
10
20
42
7e
00
00
00
00
ENDCHAR
STARTCHAR C063
ENCODING 51
SWIDTH 573 0
DWIDTH 8 0
BBX 8 16 0 -5
BITMAP
00
00
1c
22
02
02
1c
02
02
42
62
3c
00
00
00
00
ENDCHAR
STARTCHAR C064
ENCODING 52
SWIDTH 573 0
DWIDTH 8 0
BBX 8 16 0 -5
BITMAP
00
00
0c
14
14
24
24
44
7e
04
04
0e
00
00
00
00
ENDCHAR
STARTCHAR C065
ENCODING 53
SWIDTH 573 0
DWIDTH 8 0
BBX 8 16 0 -5
BITMAP
00
00
3e
20
20
20
3c
02
02
42
62
3c
00
00
00
00
ENDCHAR
STARTCHAR C066
ENCODING 54
SWIDTH 573 0
DWIDTH 8 0
BBX 8 16 0 -5
BITMAP
00
00
0c
30
20
40
5c
62
42
42
62
3c
00
00
00
00
ENDCHAR
STARTCHAR C067
ENCODING 55
SWIDTH 573 0
DWIDTH 8 0
BBX 8 16 0 -5
BITMAP
00
00
7e
42
02
04
04
08
08
10
10
10
00
00
00
00
ENDCHAR
STARTCHAR C070
ENCODING 56
SWIDTH 573 0
DWIDTH 8 0
BBX 8 16 0 -5
BITMAP
00
00
3c
42
42
42
3c
42
42
42
42
3c
00
00
00
00
ENDCHAR
STARTCHAR C071
ENCODING 57
SWIDTH 573 0
DWIDTH 8 0
BBX 8 16 0 -5
BITMAP
00
00
3c
46
42
42
46
3a
02
04
0c
30
00
00
00
00
ENDCHAR
STARTCHAR C072
ENCODING 58
SWIDTH 573 0
DWIDTH 8 0
BBX 8 16 0 -5
BITMAP
00
00
00
00
00
18
18
00
00
00
18
18
00
00
00
00
ENDCHAR
STARTCHAR C073
ENCODING 59
SWIDTH 573 0
DWIDTH 8 0
BBX 8 16 0 -5
BITMAP
00
00
00
00
00
18
18
00
00
00
18
18
08
10
00
00
ENDCHAR
STARTCHAR C074
ENCODING 60
SWIDTH 573 0
DWIDTH 8 0
BBX 8 16 0 -5
BITMAP
00
04
08
10
20
40
20
10
08
04
00
00
00
00
00
00
ENDCHAR
STARTCHAR C075
ENCODING 61
SWIDTH 573 0
DWIDTH 8 0
BBX 8 16 0 -5
BITMAP
00
00
00
00
00
7e
00
7e
00
00
00
00
00
00
00
00
ENDCHAR
STARTCHAR C076
ENCODING 62
SWIDTH 573 0
DWIDTH 8 0
BBX 8 16 0 -5
BITMAP
00
20
10
08
04
02
04
08
10
20
00
00
00
00
00
00
ENDCHAR
STARTCHAR C077
ENCODING 63
SWIDTH 573 0
DWIDTH 8 0
BBX 8 16 0 -5
BITMAP
00
00
3c
62
42
02
04
08
18
00
00
18
00
00
00
00
ENDCHAR
STARTCHAR C100
ENCODING 64
SWIDTH 573 0
DWIDTH 8 0
BBX 8 16 0 -5
BITMAP
00
00
18
24
42
4e
52
52
4c
40
22
1c
00
00
00
00
ENDCHAR
STARTCHAR C101
ENCODING 65
SWIDTH 573 0
DWIDTH 8 0
BBX 8 16 0 -5
BITMAP
00
00
00
38
08
14
14
22
22
3e
41
e3
00
00
00
00
ENDCHAR
STARTCHAR C102
ENCODING 66
SWIDTH 573 0
DWIDTH 8 0
BBX 8 16 0 -5
BITMAP
00
00
00
7c
22
22
22
3c
22
21
21
7e
00
00
00
00
ENDCHAR
STARTCHAR C103
ENCODING 67
SWIDTH 573 0
DWIDTH 8 0
BBX 8 16 0 -5
BITMAP
00
00
00
1a
26
42
40
40
40
41
22
1c
00
00
00
00
ENDCHAR
STARTCHAR C104
ENCODING 68
SWIDTH 573 0
DWIDTH 8 0
BBX 8 16 0 -5
BITMAP
00
00
00
7c
22
21
21
21
21
21
22
7c
00
00
00
00
ENDCHAR
STARTCHAR C105
ENCODING 69
SWIDTH 573 0
DWIDTH 8 0
BBX 8 16 0 -5
BITMAP
00
00
00
7f
21
20
24
3c
24
20
21
7f
00
00
00
00
ENDCHAR
STARTCHAR C106
ENCODING 70
SWIDTH 573 0
DWIDTH 8 0
BBX 8 16 0 -5
BITMAP
00
00
00
7f
21
20
24
3c
24
20
20
78
00
00
00
00
ENDCHAR
STARTCHAR C107
ENCODING 71
SWIDTH 573 0
DWIDTH 8 0
BBX 8 16 0 -5
BITMAP
00
00
00
1a
26
42
40
40
47
42
22
1c
00
00
00
00
ENDCHAR
STARTCHAR C110
ENCODING 72
SWIDTH 573 0
DWIDTH 8 0
BBX 8 16 0 -5
BITMAP
00
00
00
77
22
22
22
3e
22
22
22
77
00
00
00
00
ENDCHAR
STARTCHAR C111
ENCODING 73
SWIDTH 573 0
DWIDTH 8 0
BBX 8 16 0 -5
BITMAP
00
00
00
3e
08
08
08
08
08
08
08
3e
00
00
00
00
ENDCHAR
STARTCHAR C112
ENCODING 74
SWIDTH 573 0
DWIDTH 8 0
BBX 8 16 0 -5
BITMAP
00
00
00
3f
04
04
04
04
44
44
44
38
00
00
00
00
ENDCHAR
STARTCHAR C113
ENCODING 75
SWIDTH 573 0
DWIDTH 8 0
BBX 8 16 0 -5
BITMAP
00
00
00
73
22
24
28
38
24
24
22
73
00
00
00
00
ENDCHAR
STARTCHAR C114
ENCODING 76
SWIDTH 573 0
DWIDTH 8 0
BBX 8 16 0 -5
BITMAP
00
00
00
70
20
20
20
20
20
21
21
7f
00
00
00
00
ENDCHAR
STARTCHAR C115
ENCODING 77
SWIDTH 573 0
DWIDTH 8 0
BBX 8 16 0 -5
BITMAP
00
00
00
83
42
46
66
6a
5a
52
42
e7
00
00
00
00
ENDCHAR
STARTCHAR C116
ENCODING 78
SWIDTH 573 0
DWIDTH 8 0
BBX 8 16 0 -5
BITMAP
00
00
00
87
42
62
52
52
4a
4a
46
e2
00
00
00
00
ENDCHAR
STARTCHAR C117
ENCODING 79
SWIDTH 573 0
DWIDTH 8 0
BBX 8 16 0 -5
BITMAP
00
00
00
1c
26
42
42
42
42
42
64
38
00
00
00
00
ENDCHAR
STARTCHAR C120
ENCODING 80
SWIDTH 573 0
DWIDTH 8 0
BBX 8 16 0 -5
BITMAP
00
00
00
7e
21
21
21
3e
20
20
20
78
00
00
00
00
ENDCHAR
STARTCHAR C121
ENCODING 81
SWIDTH 573 0
DWIDTH 8 0
BBX 8 16 0 -5
BITMAP
00
00
00
1c
26
42
42
42
42
42
64
38
10
2c
03
00
ENDCHAR
STARTCHAR C122
ENCODING 82
SWIDTH 573 0
DWIDTH 8 0
BBX 8 16 0 -5
BITMAP
00
00
00
7c
22
22
22
3c
24
22
22
73
00
00
00
00
ENDCHAR
STARTCHAR C123
ENCODING 83
SWIDTH 573 0
DWIDTH 8 0
BBX 8 16 0 -5
BITMAP
00
00
00
3a
46
42
30
0c
02
42
62
5c
00
00
00
00
ENDCHAR
STARTCHAR C124
ENCODING 84
SWIDTH 573 0
DWIDTH 8 0
BBX 8 16 0 -5
BITMAP
00
00
00
7f
49
49
08
08
08
08
08
3e
00
00
00
00
ENDCHAR
STARTCHAR C125
ENCODING 85
SWIDTH 573 0
DWIDTH 8 0
BBX 8 16 0 -5
BITMAP
00
00
00
e7
42
42
42
42
42
42
24
18
00
00
00
00
ENDCHAR
STARTCHAR C126
ENCODING 86
SWIDTH 573 0
DWIDTH 8 0
BBX 8 16 0 -5
BITMAP
00
00
00
77
22
22
14
14
14
08
08
08
00
00
00
00
ENDCHAR
STARTCHAR C127
ENCODING 87
SWIDTH 573 0
DWIDTH 8 0
BBX 8 16 0 -5
BITMAP
00
00
00
e3
41
49
49
55
36
22
22
22
00
00
00
00
ENDCHAR
STARTCHAR C130
ENCODING 88
SWIDTH 573 0
DWIDTH 8 0
BBX 8 16 0 -5
BITMAP
00
00
00
77
22
14
14
08
14
14
22
77
00
00
00
00
ENDCHAR
STARTCHAR C131
ENCODING 89
SWIDTH 573 0
DWIDTH 8 0
BBX 8 16 0 -5
BITMAP
00
00
00
77
22
22
14
14
08
08
08
3e
00
00
00
00
ENDCHAR
STARTCHAR C132
ENCODING 90
SWIDTH 573 0
DWIDTH 8 0
BBX 8 16 0 -5
BITMAP
00
00
00
7e
42
04
08
10
20
42
42
7e
00
00
00
00
ENDCHAR
STARTCHAR C133
ENCODING 91
SWIDTH 573 0
DWIDTH 8 0
BBX 8 16 0 -5
BITMAP
00
3c
20
20
20
20
20
20
20
20
20
20
20
3c
00
00
ENDCHAR
STARTCHAR C134
ENCODING 92
SWIDTH 573 0
DWIDTH 8 0
BBX 8 16 0 -5
BITMAP
00
40
20
20
10
10
08
08
04
04
02
02
01
00
00
00
ENDCHAR
STARTCHAR C135
ENCODING 93
SWIDTH 573 0
DWIDTH 8 0
BBX 8 16 0 -5
BITMAP
00
3c
04
04
04
04
04
04
04
04
04
04
04
3c
00
00
ENDCHAR
STARTCHAR C136
ENCODING 94
SWIDTH 573 0
DWIDTH 8 0
BBX 8 16 0 -5
BITMAP
00
00
00
00
00
10
28
44
82
00
00
00
00
00
00
00
ENDCHAR
STARTCHAR C137
ENCODING 95
SWIDTH 573 0
DWIDTH 8 0
BBX 8 16 0 -5
BITMAP
00
00
00
00
00
00
00
00
00
00
00
00
7f
00
00
00
ENDCHAR
STARTCHAR C140
ENCODING 96
SWIDTH 573 0
DWIDTH 8 0
BBX 8 16 0 -5
BITMAP
00
00
20
10
08
04
00
00
00
00
00
00
00
00
00
00
ENDCHAR
STARTCHAR C141
ENCODING 97
SWIDTH 573 0
DWIDTH 8 0
BBX 8 16 0 -5
BITMAP
00
00
00
00
00
1c
22
02
3e
42
46
3b
00
00
00
00
ENDCHAR
STARTCHAR C142
ENCODING 98
SWIDTH 573 0
DWIDTH 8 0
BBX 8 16 0 -5
BITMAP
00
00
60
20
20
2c
32
21
21
21
32
6c
00
00
00
00
ENDCHAR
STARTCHAR C143
ENCODING 99
SWIDTH 573 0
DWIDTH 8 0
BBX 8 16 0 -5
BITMAP
00
00
00
00
00
1a
26
42
40
40
22
1c
00
00
00
00
ENDCHAR
STARTCHAR C144
ENCODING 100
SWIDTH 573 0
DWIDTH 8 0
BBX 8 16 0 -5
BITMAP
00
00
06
02
02
1a
26
42
42
42
26
1b
00
00
00
00
ENDCHAR
STARTCHAR C145
ENCODING 101
SWIDTH 573 0
DWIDTH 8 0
BBX 8 16 0 -5
BITMAP
00
00
00
00
00
1c
26
42
7e
40
22
1c
00
00
00
00
ENDCHAR
STARTCHAR C146
ENCODING 102
SWIDTH 573 0
DWIDTH 8 0
BBX 8 16 0 -5
BITMAP
00
00
0e
11
10
7c
10
10
10
10
10
7c
00
00
00
00
ENDCHAR
STARTCHAR C147
ENCODING 103
SWIDTH 573 0
DWIDTH 8 0
BBX 8 16 0 -5
BITMAP
00
00
00
00
00
1b
26
42
42
42
26
1a
02
04
38
00
ENDCHAR
STARTCHAR C150
ENCODING 104
SWIDTH 573 0
DWIDTH 8 0
BBX 8 16 0 -5
BITMAP
00
00
60
20
20
2c
32
22
22
22
22
77
00
00
00
00
ENDCHAR
STARTCHAR C151
ENCODING 105
SWIDTH 573 0
DWIDTH 8 0
BBX 8 16 0 -5
BITMAP
00
00
08
08
00
38
08
08
08
08
08
3e
00
00
00
00
ENDCHAR
STARTCHAR C152
ENCODING 106
SWIDTH 573 0
DWIDTH 8 0
BBX 8 16 0 -5
BITMAP
00
00
04
04
00
3c
04
04
04
04
04
04
04
08
70
00
ENDCHAR
STARTCHAR C153
ENCODING 107
SWIDTH 573 0
DWIDTH 8 0
BBX 8 16 0 -5
BITMAP
00
00
60
20
20
26
24
28
38
24
22
67
00
00
00
00
ENDCHAR
STARTCHAR C154
ENCODING 108
SWIDTH 573 0
DWIDTH 8 0
BBX 8 16 0 -5
BITMAP
00
00
38
08
08
08
08
08
08
08
08
3e
00
00
00
00
ENDCHAR
STARTCHAR C155
ENCODING 109
SWIDTH 573 0
DWIDTH 8 0
BBX 8 16 0 -5
BITMAP
00
00
00
00
00
92
6d
49
49
49
49
49
00
00
00
00
ENDCHAR
STARTCHAR C156
ENCODING 110
SWIDTH 573 0
DWIDTH 8 0
BBX 8 16 0 -5
BITMAP
00
00
00
00
00
6c
32
22
22
22
22
77
00
00
00
00
ENDCHAR
STARTCHAR C157
ENCODING 111
SWIDTH 573 0
DWIDTH 8 0
BBX 8 16 0 -5
BITMAP
00
00
00
00
00
1c
22
41
41
41
22
1c
00
00
00
00
ENDCHAR
STARTCHAR C160
ENCODING 112
SWIDTH 573 0
DWIDTH 8 0
BBX 8 16 0 -5
BITMAP
00
00
00
00
6c
32
21
21
21
32
2c
20
20
70
00
00
ENDCHAR
STARTCHAR C161
ENCODING 113
SWIDTH 573 0
DWIDTH 8 0
BBX 8 16 0 -5
BITMAP
00
00
00
00
00
1b
26
42
42
42
26
1a
02
02
07
00
ENDCHAR
STARTCHAR C162
ENCODING 114
SWIDTH 573 0
DWIDTH 8 0
BBX 8 16 0 -5
BITMAP
00
00
00
00
00
6e
31
20
20
20
20
78
00
00
00
00
ENDCHAR
STARTCHAR C163
ENCODING 115
SWIDTH 573 0
DWIDTH 8 0
BBX 8 16 0 -5
BITMAP
00
00
00
00
00
3e
42
40
3c
02
42
7c
00
00
00
00
ENDCHAR
STARTCHAR C164
ENCODING 116
SWIDTH 573 0
DWIDTH 8 0
BBX 8 16 0 -5
BITMAP
00
00
10
10
10
7c
10
10
10
10
12
0c
00
00
00
00
ENDCHAR
STARTCHAR C165
ENCODING 117
SWIDTH 573 0
DWIDTH 8 0
BBX 8 16 0 -5
BITMAP
00
00
00
00
00
66
22
22
22
22
26
1b
00
00
00
00
ENDCHAR
STARTCHAR C166
ENCODING 118
SWIDTH 573 0
DWIDTH 8 0
BBX 8 16 0 -5
BITMAP
00
00
00
00
00
77
22
22
14
14
08
08
00
00
00
00
ENDCHAR
STARTCHAR C167
ENCODING 119
SWIDTH 573 0
DWIDTH 8 0
BBX 8 16 0 -5
BITMAP
00
00
00
00
00
e3
41
49
5d
36
22
22
00
00
00
00
ENDCHAR
STARTCHAR C170
ENCODING 120
SWIDTH 573 0
DWIDTH 8 0
BBX 8 16 0 -5
BITMAP
00
00
00
00
00
77
22
14
08
14
22
77
00
00
00
00
ENDCHAR
STARTCHAR C171
ENCODING 121
SWIDTH 573 0
DWIDTH 8 0
BBX 8 16 0 -5
BITMAP
00
00
00
00
00
77
22
22
14
14
08
08
10
10
78
00
ENDCHAR
STARTCHAR C172
ENCODING 122
SWIDTH 573 0
DWIDTH 8 0
BBX 8 16 0 -5
BITMAP
00
00
00
00
00
7e
44
08
10
20
42
7e
00
00
00
00
ENDCHAR
STARTCHAR C173
ENCODING 123
SWIDTH 573 0
DWIDTH 8 0
BBX 8 16 0 -5
BITMAP
00
0e
10
10
10
10
10
60
10
10
10
10
10
0e
00
00
ENDCHAR
STARTCHAR C174
ENCODING 124
SWIDTH 573 0
DWIDTH 8 0
BBX 8 16 0 -5
BITMAP
00
10
10
10
10
10
10
10
10
10
10
00
00
00
00
00
ENDCHAR
STARTCHAR C175
ENCODING 125
SWIDTH 573 0
DWIDTH 8 0
BBX 8 16 0 -5
BITMAP
00
70
08
08
08
08
08
06
08
08
08
08
08
70
00
00
ENDCHAR
STARTCHAR C176
ENCODING 126
SWIDTH 573 0
DWIDTH 8 0
BBX 8 16 0 -5
BITMAP
00
00
00
00
00
00
30
49
06
00
00
00
00
00
00
00
ENDCHAR
STARTCHAR C240
ENCODING 160
SWIDTH 573 0
DWIDTH 8 0
BBX 8 16 0 -5
BITMAP
00
00
1c
22
22
22
3b
6e
22
22
22
1c
00
00
00
00
ENDCHAR
STARTCHAR C241
ENCODING 161
SWIDTH 573 0
DWIDTH 8 0
BBX 8 16 0 -5
BITMAP
00
66
66
00
00
00
00
00
00
00
00
00
00
00
00
00
ENDCHAR
STARTCHAR C242
ENCODING 162
SWIDTH 573 0
DWIDTH 8 0
BBX 8 16 0 -5
BITMAP
00
00
3c
00
00
00
00
00
00
00
00
00
00
00
00
00
ENDCHAR
STARTCHAR C244
ENCODING 164
SWIDTH 573 0
DWIDTH 8 0
BBX 8 16 0 -5
BITMAP
00
00
0c
10
20
40
20
10
0c
00
7e
00
00
00
00
00
ENDCHAR
STARTCHAR C246
ENCODING 166
SWIDTH 573 0
DWIDTH 8 0
BBX 8 16 0 -5
BITMAP
00
00
30
08
04
02
04
08
30
00
7e
00
00
00
00
00
ENDCHAR
STARTCHAR C250
ENCODING 168
SWIDTH 573 0
DWIDTH 8 0
BBX 8 16 0 -5
BITMAP
00
00
02
04
7e
08
10
7e
20
40
00
00
00
00
00
00
ENDCHAR
STARTCHAR C251
ENCODING 169
SWIDTH 573 0
DWIDTH 8 0
BBX 8 16 0 -5
BITMAP
00
00
00
00
00
82
44
28
10
00
00
00
00
00
00
00
ENDCHAR
STARTCHAR C253
ENCODING 171
SWIDTH 573 0
DWIDTH 8 0
BBX 8 16 0 -5
BITMAP
00
00
00
00
41
22
14
08
14
22
41
00
00
00
00
00
ENDCHAR
STARTCHAR C254
ENCODING 172
SWIDTH 573 0
DWIDTH 8 0
BBX 8 16 0 -5
BITMAP
00
00
00
00
00
00
00
7e
00
00
18
18
08
10
20
00
ENDCHAR
STARTCHAR C255
ENCODING 173
SWIDTH 573 0
DWIDTH 8 0
BBX 8 16 0 -5
BITMAP
00
00
7f
41
49
41
7f
41
49
49
41
7f
00
00
00
00
ENDCHAR
STARTCHAR C070
ENCODING 174
SWIDTH 573 0
DWIDTH 8 0
BBX 8 16 0 -5
BITMAP
00
00
00
00
00
66
66
00
00
00
18
18
00
00
00
00
ENDCHAR
STARTCHAR C257
ENCODING 175
SWIDTH 573 0
DWIDTH 8 0
BBX 8 16 0 -5
BITMAP
00
01
02
02
04
04
08
7f
10
10
20
20
40
00
00
00
ENDCHAR
STARTCHAR C260
ENCODING 176
SWIDTH 573 0
DWIDTH 8 0
BBX 8 16 0 -5
BITMAP
00
00
33
4c
00
08
14
22
41
00
00
00
00
00
00
00
ENDCHAR
STARTCHAR C261
ENCODING 177
SWIDTH 573 0
DWIDTH 8 0
BBX 8 16 0 -5
BITMAP
00
00
08
00
08
08
08
08
08
08
08
08
00
00
00
00
ENDCHAR
STARTCHAR C263
ENCODING 179
SWIDTH 573 0
DWIDTH 8 0
BBX 8 16 0 -5
BITMAP
00
00
18
24
20
20
20
78
20
20
41
fe
00
00
00
00
ENDCHAR
STARTCHAR C264
ENCODING 180
SWIDTH 573 0
DWIDTH 8 0
BBX 8 16 0 -5
BITMAP
00
00
00
77
22
22
14
7f
08
7f
08
3e
00
00
00
00
ENDCHAR
STARTCHAR C271
ENCODING 185
SWIDTH 573 0
DWIDTH 8 0
BBX 8 16 0 -5
BITMAP
00
00
33
4c
00
41
22
14
08
00
00
00
00
00
00
00
ENDCHAR
STARTCHAR C273
ENCODING 187
SWIDTH 573 0
DWIDTH 8 0
BBX 8 16 0 -5
BITMAP
00
00
7f
41
41
49
55
55
49
41
41
7f
00
00
00
00
ENDCHAR
STARTCHAR C274
ENCODING 188
SWIDTH 573 0
DWIDTH 8 0
BBX 8 16 0 -5
BITMAP
00
00
7f
61
51
51
49
49
45
45
43
7f
00
00
00
00
ENDCHAR
STARTCHAR C275
ENCODING 189
SWIDTH 573 0
DWIDTH 8 0
BBX 8 16 0 -5
BITMAP
00
00
00
00
00
7f
00
7f
00
7f
00
00
00
00
00
00
ENDCHAR
STARTCHAR C276
ENCODING 190
SWIDTH 573 0
DWIDTH 8 0
BBX 8 16 0 -5
BITMAP
00
00
3c
24
24
24
24
24
24
24
24
3c
00
00
00
00
ENDCHAR
STARTCHAR C277
ENCODING 191
SWIDTH 573 0
DWIDTH 8 0
BBX 8 16 0 -5
BITMAP
00
00
18
00
00
18
10
20
40
42
46
3c
00
00
00
00
ENDCHAR
STARTCHAR C301
ENCODING 193
SWIDTH 573 0
DWIDTH 8 0
BBX 8 16 0 -5
BITMAP
00
00
00
00
00
00
3a
44
44
44
44
3b
00
00
00
00
ENDCHAR
STARTCHAR C302
ENCODING 194
SWIDTH 573 0
DWIDTH 8 0
BBX 8 16 0 -5
BITMAP
00
00
00
00
08
08
08
08
08
08
7f
00
00
00
00
00
ENDCHAR
STARTCHAR C303
ENCODING 195
SWIDTH 573 0
DWIDTH 8 0
BBX 8 16 0 -5
BITMAP
00
00
00
00
3c
42
42
42
42
42
42
42
00
00
00
00
ENDCHAR
STARTCHAR C304
ENCODING 196
SWIDTH 573 0
DWIDTH 8 0
BBX 8 16 0 -5
BITMAP
00
20
20
20
20
20
20
20
20
20
20
3c
00
00
00
00
ENDCHAR
STARTCHAR C305
ENCODING 197
SWIDTH 573 0
DWIDTH 8 0
BBX 8 16 0 -5
BITMAP
00
00
00
3c
40
40
78
40
40
3e
00
00
00
00
00
00
ENDCHAR
STARTCHAR C307
ENCODING 199
SWIDTH 573 0
DWIDTH 8 0
BBX 8 16 0 -5
BITMAP
00
00
00
7f
41
22
14
08
00
00
00
00
00
00
00
00
ENDCHAR
STARTCHAR C310
ENCODING 200
SWIDTH 573 0
DWIDTH 8 0
BBX 8 16 0 -5
BITMAP
00
00
00
00
08
14
22
41
7f
00
00
00
00
00
00
00
ENDCHAR
STARTCHAR C311
ENCODING 201
SWIDTH 573 0
DWIDTH 8 0
BBX 8 16 0 -5
BITMAP
00
00
00
00
00
30
10
10
10
10
12
0c
00
00
00
00
ENDCHAR
STARTCHAR C312
ENCODING 202
SWIDTH 573 0
DWIDTH 8 0
BBX 8 16 0 -5
BITMAP
00
00
00
00
00
18
24
24
18
00
00
00
00
00
00
00
ENDCHAR
STARTCHAR C314
ENCODING 204
SWIDTH 573 0
DWIDTH 8 0
BBX 8 16 0 -5
BITMAP
00
00
7f
41
41
41
41
41
41
41
41
7f
00
00
00
00
ENDCHAR
STARTCHAR C315
ENCODING 205
SWIDTH 573 0
DWIDTH 8 0
BBX 8 16 0 -5
BITMAP
00
10
10
10
10
10
10
10
10
10
10
00
00
00
00
00
ENDCHAR
STARTCHAR C316
ENCODING 206
SWIDTH 573 0
DWIDTH 8 0
BBX 8 16 0 -5
BITMAP
00
00
00
00
7f
08
08
08
08
08
08
00
00
00
00
00
ENDCHAR
STARTCHAR C317
ENCODING 207
SWIDTH 573 0
DWIDTH 8 0
BBX 8 16 0 -5
BITMAP
00
00
00
00
00
3c
42
42
42
42
3c
00
00
00
00
00
ENDCHAR
STARTCHAR C322
ENCODING 210
SWIDTH 573 0
DWIDTH 8 0
BBX 8 16 0 -5
BITMAP
00
00
00
00
00
1c
22
42
42
42
5c
40
40
40
00
00
ENDCHAR
STARTCHAR C323
ENCODING 211
SWIDTH 573 0
DWIDTH 8 0
BBX 8 16 0 -5
BITMAP
00
3c
20
20
20
20
20
20
20
20
20
20
00
00
00
00
ENDCHAR
STARTCHAR C325
ENCODING 213
SWIDTH 573 0
DWIDTH 8 0
BBX 8 16 0 -5
BITMAP
00
00
08
08
08
08
08
08
08
2a
1c
08
00
00
00
00
ENDCHAR
STARTCHAR C326
ENCODING 214
SWIDTH 573 0
DWIDTH 8 0
BBX 8 16 0 -5
BITMAP
00
00
00
00
42
42
42
42
42
42
42
3c
00
00
00
00
ENDCHAR
STARTCHAR C327
ENCODING 215
SWIDTH 573 0
DWIDTH 8 0
BBX 8 16 0 -5
BITMAP
00
00
00
00
00
00
21
49
49
49
49
36
00
00
00
00
ENDCHAR
STARTCHAR C330
ENCODING 216
SWIDTH 573 0
DWIDTH 8 0
BBX 8 16 0 -5
BITMAP
00
00
00
00
7c
02
02
02
02
7c
00
00
00
00
00
00
ENDCHAR
STARTCHAR C331
ENCODING 217
SWIDTH 573 0
DWIDTH 8 0
BBX 8 16 0 -5
BITMAP
00
00
08
1c
2a
08
08
08
08
08
08
08
00
00
00
00
ENDCHAR
STARTCHAR C332
ENCODING 218
SWIDTH 573 0
DWIDTH 8 0
BBX 8 16 0 -5
BITMAP
00
00
00
00
3e
40
40
40
40
3e
00
00
00
00
00
00
ENDCHAR
STARTCHAR C333
ENCODING 219
SWIDTH 573 0
DWIDTH 8 0
BBX 8 16 0 -5
BITMAP
00
00
00
00
40
40
40
7e
40
40
40
00
00
00
00
00
ENDCHAR
STARTCHAR C334
ENCODING 220
SWIDTH 573 0
DWIDTH 8 0
BBX 8 16 0 -5
BITMAP
00
40
20
20
10
10
08
7f
04
04
02
02
01
00
00
00
ENDCHAR
STARTCHAR C335
ENCODING 221
SWIDTH 573 0
DWIDTH 8 0
BBX 8 16 0 -5
BITMAP
00
00
00
00
02
02
02
7e
02
02
02
00
00
00
00
00
ENDCHAR
STARTCHAR C337
ENCODING 223
SWIDTH 573 0
DWIDTH 8 0
BBX 8 16 0 -5
BITMAP
00
00
00
00
08
08
00
7f
00
08
08
00
00
00
00
00
ENDCHAR
STARTCHAR C340
ENCODING 224
SWIDTH 573 0
DWIDTH 8 0
BBX 8 16 0 -5
BITMAP
00
00
00
00
7f
08
08
08
08
08
7f
00
00
00
00
00
ENDCHAR
STARTCHAR C341
ENCODING 225
SWIDTH 573 0
DWIDTH 8 0
BBX 8 16 0 -5
BITMAP
00
00
00
00
1e
21
21
3f
21
21
1e
00
00
00
00
00
ENDCHAR
STARTCHAR C342
ENCODING 226
SWIDTH 573 0
DWIDTH 8 0
BBX 8 16 0 -5
BITMAP
00
00
00
08
08
1c
2a
2a
1c
08
7f
00
00
00
00
00
ENDCHAR
STARTCHAR C343
ENCODING 227
SWIDTH 573 0
DWIDTH 8 0
BBX 8 16 0 -5
BITMAP
00
00
00
00
1c
22
22
22
3e
22
22
22
00
00
00
00
ENDCHAR
STARTCHAR C345
ENCODING 229
SWIDTH 573 0
DWIDTH 8 0
BBX 8 16 0 -5
BITMAP
00
00
00
3c
40
40
78
40
40
3e
00
7e
00
00
00
00
ENDCHAR
STARTCHAR C346
ENCODING 230
SWIDTH 573 0
DWIDTH 8 0
BBX 8 16 0 -5
BITMAP
00
00
33
4c
00
7f
41
22
14
08
00
00
00
00
00
00
ENDCHAR
STARTCHAR C347
ENCODING 231
SWIDTH 573 0
DWIDTH 8 0
BBX 8 16 0 -5
BITMAP
00
08
08
7f
49
49
2a
1c
08
08
08
00
00
00
00
00
ENDCHAR
STARTCHAR C350
ENCODING 232
SWIDTH 573 0
DWIDTH 8 0
BBX 8 16 0 -5
BITMAP
00
08
08
08
1c
2a
49
49
7f
08
08
00
00
00
00
00
ENDCHAR
STARTCHAR C351
ENCODING 233
SWIDTH 573 0
DWIDTH 8 0
BBX 8 16 0 -5
BITMAP
00
00
00
00
30
10
10
10
10
12
0c
00
3e
00
00
00
ENDCHAR
STARTCHAR C352
ENCODING 234
SWIDTH 573 0
DWIDTH 8 0
BBX 8 16 0 -5
BITMAP
00
00
24
00
00
18
24
24
18
00
00
00
00
00
00
00
ENDCHAR
STARTCHAR C354
ENCODING 236
SWIDTH 573 0
DWIDTH 8 0
BBX 8 16 0 -5
BITMAP
00
00
7f
49
49
49
41
41
41
41
41
7f
00
00
00
00
ENDCHAR
STARTCHAR C356
ENCODING 238
SWIDTH 573 0
DWIDTH 8 0
BBX 8 16 0 -5
BITMAP
00
00
00
00
7f
08
1c
2a
2a
1c
08
08
00
00
00
00
ENDCHAR
STARTCHAR C357
ENCODING 239
SWIDTH 573 0
DWIDTH 8 0
BBX 8 16 0 -5
BITMAP
00
00
22
00
00
1c
22
22
22
1c
00
00
00
00
00
00
ENDCHAR
STARTCHAR C360
ENCODING 240
SWIDTH 573 0
DWIDTH 8 0
BBX 8 16 0 -5
BITMAP
00
00
00
00
3e
49
6b
5d
55
63
3e
00
00
00
00
00
ENDCHAR
STARTCHAR C364
ENCODING 244
SWIDTH 573 0
DWIDTH 8 0
BBX 8 16 0 -5
BITMAP
00
00
00
00
80
7c
62
52
4a
46
3e
01
00
00
00
00
ENDCHAR
STARTCHAR C367
ENCODING 247
SWIDTH 573 0
DWIDTH 8 0
BBX 8 16 0 -5
BITMAP
00
00
08
08
08
3e
49
49
49
49
3e
08
08
00
00
00
ENDCHAR
STARTCHAR C372
ENCODING 250
SWIDTH 573 0
DWIDTH 8 0
BBX 8 16 0 -5
BITMAP
00
00
00
00
08
1c
2a
28
28
2a
1c
08
00
00
00
00
ENDCHAR
STARTCHAR C373
ENCODING 251
SWIDTH 573 0
DWIDTH 8 0
BBX 8 16 0 -5
BITMAP
00
00
00
00
00
20
40
ff
40
20
00
00
00
00
00
00
ENDCHAR
STARTCHAR C374
ENCODING 252
SWIDTH 573 0
DWIDTH 8 0
BBX 8 16 0 -5
BITMAP
00
00
00
00
08
14
22
41
7f
00
7f
00
00
00
00
00
ENDCHAR
STARTCHAR C375
ENCODING 253
SWIDTH 573 0
DWIDTH 8 0
BBX 8 16 0 -5
BITMAP
00
00
00
00
00
04
02
ff
02
04
00
00
00
00
00
00
ENDCHAR
STARTCHAR C376
ENCODING 254
SWIDTH 573 0
DWIDTH 8 0
BBX 8 16 0 -5
BITMAP
00
00
00
00
08
14
22
41
22
14
08
00
00
00
00
00
ENDCHAR
ENDFONT
